<mxfile host="app.diagrams.net" modified="2022-04-06T09:19:33.702Z" agent="5.0 (Macintosh; Intel Mac OS X 10_15_7) AppleWebKit/605.1.15 (KHTML, like Gecko) Version/15.3 Safari/605.1.15" etag="78YQLmnFHdfShi1-_R4D" version="17.4.0" type="github">
  <diagram id="51nVPeMaprPgW2fDRWtM" name="Page-1">
    <mxGraphModel dx="786" dy="545" grid="1" gridSize="10" guides="1" tooltips="1" connect="1" arrows="1" fold="1" page="1" pageScale="1" pageWidth="827" pageHeight="1169" math="0" shadow="0">
      <root>
        <mxCell id="0" />
        <mxCell id="1" parent="0" />
        <mxCell id="lE9tWUVvxa7UO95_J6Bx-14" value="" style="rounded=1;whiteSpace=wrap;html=1;fillColor=#dae8fc;strokeColor=#6c8ebf;" vertex="1" parent="1">
          <mxGeometry y="220" width="550" height="410" as="geometry" />
        </mxCell>
        <mxCell id="lE9tWUVvxa7UO95_J6Bx-1" value="" style="endArrow=classic;html=1;rounded=0;" edge="1" parent="1">
          <mxGeometry width="50" height="50" relative="1" as="geometry">
            <mxPoint x="111" y="280" as="sourcePoint" />
            <mxPoint x="191" y="280" as="targetPoint" />
          </mxGeometry>
        </mxCell>
        <mxCell id="lE9tWUVvxa7UO95_J6Bx-2" value="&lt;span style=&quot;color: rgb(32 , 33 , 34) ; font-family: sans-serif ; font-size: 14px&quot;&gt;Goldreich et al.&lt;br&gt;[GGH97]&lt;br&gt;&lt;/span&gt;" style="text;html=1;align=center;verticalAlign=middle;resizable=0;points=[];autosize=1;strokeColor=none;fillColor=none;" vertex="1" parent="1">
          <mxGeometry x="37" y="234" width="110" height="40" as="geometry" />
        </mxCell>
        <mxCell id="lE9tWUVvxa7UO95_J6Bx-3" value="GGH PKE&lt;br&gt;GGH DS" style="text;html=1;align=center;verticalAlign=middle;resizable=0;points=[];autosize=1;strokeColor=none;fillColor=none;fontStyle=1" vertex="1" parent="1">
          <mxGeometry x="56" y="302" width="70" height="30" as="geometry" />
        </mxCell>
        <mxCell id="lE9tWUVvxa7UO95_J6Bx-4" value="" style="endArrow=classic;html=1;rounded=0;" edge="1" parent="1">
          <mxGeometry width="50" height="50" relative="1" as="geometry">
            <mxPoint x="241" y="280" as="sourcePoint" />
            <mxPoint x="311" y="280" as="targetPoint" />
          </mxGeometry>
        </mxCell>
        <mxCell id="lE9tWUVvxa7UO95_J6Bx-5" value="Regev&lt;br&gt;[Reg05]" style="text;html=1;align=center;verticalAlign=middle;resizable=0;points=[];autosize=1;strokeColor=none;fillColor=none;" vertex="1" parent="1">
          <mxGeometry x="181" y="240" width="60" height="30" as="geometry" />
        </mxCell>
        <mxCell id="lE9tWUVvxa7UO95_J6Bx-8" value="LWE" style="text;html=1;align=center;verticalAlign=middle;resizable=0;points=[];autosize=1;strokeColor=none;fillColor=none;" vertex="1" parent="1">
          <mxGeometry x="191" y="290" width="40" height="20" as="geometry" />
        </mxCell>
        <mxCell id="lE9tWUVvxa7UO95_J6Bx-9" value="Gentry et al.&lt;br&gt;[GPV08]" style="text;html=1;align=center;verticalAlign=middle;resizable=0;points=[];autosize=1;strokeColor=none;fillColor=none;" vertex="1" parent="1">
          <mxGeometry x="421" y="242" width="80" height="30" as="geometry" />
        </mxCell>
        <mxCell id="lE9tWUVvxa7UO95_J6Bx-44" style="edgeStyle=orthogonalEdgeStyle;rounded=0;orthogonalLoop=1;jettySize=auto;html=1;" edge="1" parent="1">
          <mxGeometry relative="1" as="geometry">
            <mxPoint x="37" y="414" as="targetPoint" />
            <mxPoint x="457" y="344" as="sourcePoint" />
            <Array as="points">
              <mxPoint x="457" y="363" />
              <mxPoint x="37" y="363" />
            </Array>
          </mxGeometry>
        </mxCell>
        <mxCell id="lE9tWUVvxa7UO95_J6Bx-10" value="Lattice &lt;br&gt;trapdoors" style="text;html=1;align=center;verticalAlign=middle;resizable=0;points=[];autosize=1;strokeColor=none;fillColor=none;" vertex="1" parent="1">
          <mxGeometry x="431" y="285" width="70" height="30" as="geometry" />
        </mxCell>
        <mxCell id="lE9tWUVvxa7UO95_J6Bx-11" value="Micciancio &amp;amp; Peikert&lt;br&gt;[MP12]" style="text;html=1;align=center;verticalAlign=middle;resizable=0;points=[];autosize=1;strokeColor=none;fillColor=none;" vertex="1" parent="1">
          <mxGeometry x="271" y="368" width="120" height="30" as="geometry" />
        </mxCell>
        <mxCell id="lE9tWUVvxa7UO95_J6Bx-12" value="New lattice&lt;br&gt;&amp;nbsp;trapdoors" style="text;html=1;align=center;verticalAlign=middle;resizable=0;points=[];autosize=1;strokeColor=none;fillColor=none;" vertex="1" parent="1">
          <mxGeometry x="296" y="414" width="70" height="30" as="geometry" />
        </mxCell>
        <mxCell id="lE9tWUVvxa7UO95_J6Bx-13" value="" style="endArrow=classic;html=1;rounded=0;" edge="1" parent="1">
          <mxGeometry width="50" height="50" relative="1" as="geometry">
            <mxPoint x="235" y="409" as="sourcePoint" />
            <mxPoint x="310" y="409" as="targetPoint" />
          </mxGeometry>
        </mxCell>
        <mxCell id="lE9tWUVvxa7UO95_J6Bx-15" value="Dual Regev PKE, IBE, DS" style="text;html=1;align=center;verticalAlign=middle;resizable=0;points=[];autosize=1;strokeColor=none;fillColor=none;fontStyle=1" vertex="1" parent="1">
          <mxGeometry x="386" y="315" width="160" height="20" as="geometry" />
        </mxCell>
        <mxCell id="lE9tWUVvxa7UO95_J6Bx-16" value="Micciancio &amp;amp; Regev&lt;br&gt;[MR07]" style="text;html=1;align=center;verticalAlign=middle;resizable=0;points=[];autosize=1;strokeColor=none;fillColor=none;" vertex="1" parent="1">
          <mxGeometry x="271" y="241" width="120" height="30" as="geometry" />
        </mxCell>
        <mxCell id="lE9tWUVvxa7UO95_J6Bx-17" value="Worst-case &lt;br&gt;to Average case&lt;br&gt;Reduction" style="text;html=1;align=center;verticalAlign=middle;resizable=0;points=[];autosize=1;strokeColor=none;fillColor=none;" vertex="1" parent="1">
          <mxGeometry x="283" y="283" width="100" height="50" as="geometry" />
        </mxCell>
        <mxCell id="lE9tWUVvxa7UO95_J6Bx-18" value="Agrawal et al. [ABB10]" style="text;html=1;align=center;verticalAlign=middle;resizable=0;points=[];autosize=1;strokeColor=none;fillColor=none;" vertex="1" parent="1">
          <mxGeometry x="134" y="364" width="140" height="20" as="geometry" />
        </mxCell>
        <mxCell id="lE9tWUVvxa7UO95_J6Bx-19" value="Trapdoor &lt;br&gt;delegation" style="text;html=1;align=center;verticalAlign=middle;resizable=0;points=[];autosize=1;strokeColor=none;fillColor=none;" vertex="1" parent="1">
          <mxGeometry x="170" y="414" width="70" height="30" as="geometry" />
        </mxCell>
        <mxCell id="lE9tWUVvxa7UO95_J6Bx-20" value="Cash et al. &amp;nbsp;[CHKP10]" style="text;html=1;align=center;verticalAlign=middle;resizable=0;points=[];autosize=1;strokeColor=none;fillColor=none;" vertex="1" parent="1">
          <mxGeometry x="139" y="379" width="130" height="20" as="geometry" />
        </mxCell>
        <mxCell id="lE9tWUVvxa7UO95_J6Bx-22" value="Gentry&amp;nbsp;&lt;br&gt;[Gen09]" style="text;html=1;align=center;verticalAlign=middle;resizable=0;points=[];autosize=1;strokeColor=none;fillColor=none;" vertex="1" parent="1">
          <mxGeometry x="56" y="368" width="60" height="30" as="geometry" />
        </mxCell>
        <mxCell id="lE9tWUVvxa7UO95_J6Bx-23" value="FHE" style="text;html=1;align=center;verticalAlign=middle;resizable=0;points=[];autosize=1;strokeColor=none;fillColor=none;fontStyle=1" vertex="1" parent="1">
          <mxGeometry x="63" y="454" width="40" height="20" as="geometry" />
        </mxCell>
        <mxCell id="lE9tWUVvxa7UO95_J6Bx-24" value="" style="endArrow=classic;html=1;rounded=0;" edge="1" parent="1">
          <mxGeometry width="50" height="50" relative="1" as="geometry">
            <mxPoint x="33" y="409" as="sourcePoint" />
            <mxPoint x="68" y="409" as="targetPoint" />
          </mxGeometry>
        </mxCell>
        <mxCell id="lE9tWUVvxa7UO95_J6Bx-25" value="" style="endArrow=classic;html=1;rounded=0;" edge="1" parent="1">
          <mxGeometry width="50" height="50" relative="1" as="geometry">
            <mxPoint x="351" y="279.66" as="sourcePoint" />
            <mxPoint x="441" y="280" as="targetPoint" />
          </mxGeometry>
        </mxCell>
        <mxCell id="lE9tWUVvxa7UO95_J6Bx-26" value="1997" style="text;html=1;align=center;verticalAlign=middle;resizable=0;points=[];autosize=1;strokeColor=none;fillColor=none;fontStyle=1;fontColor=#FF0000;" vertex="1" parent="1">
          <mxGeometry x="71" y="266" width="40" height="20" as="geometry" />
        </mxCell>
        <mxCell id="lE9tWUVvxa7UO95_J6Bx-27" value="2005" style="text;html=1;align=center;verticalAlign=middle;resizable=0;points=[];autosize=1;strokeColor=none;fillColor=none;fontStyle=1;fontColor=#FF0000;" vertex="1" parent="1">
          <mxGeometry x="191" y="266" width="40" height="20" as="geometry" />
        </mxCell>
        <mxCell id="lE9tWUVvxa7UO95_J6Bx-28" value="2007" style="text;html=1;align=center;verticalAlign=middle;resizable=0;points=[];autosize=1;strokeColor=none;fillColor=none;fontStyle=1;fontColor=#FF0000;" vertex="1" parent="1">
          <mxGeometry x="312" y="266" width="40" height="20" as="geometry" />
        </mxCell>
        <mxCell id="lE9tWUVvxa7UO95_J6Bx-30" value="2008" style="text;html=1;align=center;verticalAlign=middle;resizable=0;points=[];autosize=1;strokeColor=none;fillColor=none;fontStyle=1;fontColor=#FF0000;" vertex="1" parent="1">
          <mxGeometry x="441" y="266" width="40" height="20" as="geometry" />
        </mxCell>
        <mxCell id="lE9tWUVvxa7UO95_J6Bx-31" value="2010" style="text;html=1;align=center;verticalAlign=middle;resizable=0;points=[];autosize=1;strokeColor=none;fillColor=none;fontStyle=1;fontColor=#FF0000;" vertex="1" parent="1">
          <mxGeometry x="181" y="395" width="40" height="20" as="geometry" />
        </mxCell>
        <mxCell id="lE9tWUVvxa7UO95_J6Bx-32" value="HIBE" style="text;html=1;align=center;verticalAlign=middle;resizable=0;points=[];autosize=1;strokeColor=none;fillColor=none;fontStyle=1" vertex="1" parent="1">
          <mxGeometry x="185" y="455" width="40" height="20" as="geometry" />
        </mxCell>
        <mxCell id="lE9tWUVvxa7UO95_J6Bx-33" value="2012" style="text;html=1;align=center;verticalAlign=middle;resizable=0;points=[];autosize=1;strokeColor=none;fillColor=none;fontStyle=1;fontColor=#FF0000;" vertex="1" parent="1">
          <mxGeometry x="310" y="396" width="40" height="20" as="geometry" />
        </mxCell>
        <mxCell id="lE9tWUVvxa7UO95_J6Bx-34" value="" style="endArrow=classic;html=1;rounded=0;" edge="1" parent="1">
          <mxGeometry width="50" height="50" relative="1" as="geometry">
            <mxPoint x="352" y="408.66" as="sourcePoint" />
            <mxPoint x="432" y="408.66" as="targetPoint" />
            <Array as="points">
              <mxPoint x="422" y="408.66" />
            </Array>
          </mxGeometry>
        </mxCell>
        <mxCell id="lE9tWUVvxa7UO95_J6Bx-35" value="2014" style="text;html=1;align=center;verticalAlign=middle;resizable=0;points=[];autosize=1;strokeColor=none;fillColor=none;fontStyle=1;fontColor=#FF0000;" vertex="1" parent="1">
          <mxGeometry x="435" y="395" width="40" height="20" as="geometry" />
        </mxCell>
        <mxCell id="lE9tWUVvxa7UO95_J6Bx-36" value="Boneh et al &lt;br&gt;[BGG+14]." style="text;html=1;align=center;verticalAlign=middle;resizable=0;points=[];autosize=1;strokeColor=none;fillColor=none;" vertex="1" parent="1">
          <mxGeometry x="415" y="370" width="80" height="30" as="geometry" />
        </mxCell>
        <mxCell id="lE9tWUVvxa7UO95_J6Bx-37" value="Lattice &lt;br&gt;Homomorphic&lt;br&gt;&amp;nbsp;Evaluation" style="text;html=1;align=center;verticalAlign=middle;resizable=0;points=[];autosize=1;strokeColor=none;fillColor=none;" vertex="1" parent="1">
          <mxGeometry x="413" y="410" width="90" height="50" as="geometry" />
        </mxCell>
        <mxCell id="lE9tWUVvxa7UO95_J6Bx-39" value="2009" style="text;html=1;align=center;verticalAlign=middle;resizable=0;points=[];autosize=1;strokeColor=none;fillColor=none;fontStyle=1;fontColor=#FF0000;" vertex="1" parent="1">
          <mxGeometry x="64" y="395" width="40" height="20" as="geometry" />
        </mxCell>
        <mxCell id="lE9tWUVvxa7UO95_J6Bx-46" value="" style="endArrow=classic;html=1;rounded=0;" edge="1" parent="1">
          <mxGeometry width="50" height="50" relative="1" as="geometry">
            <mxPoint x="102" y="409" as="sourcePoint" />
            <mxPoint x="182" y="409" as="targetPoint" />
          </mxGeometry>
        </mxCell>
        <mxCell id="lE9tWUVvxa7UO95_J6Bx-48" value="2019" style="text;html=1;align=center;verticalAlign=middle;resizable=0;points=[];autosize=1;strokeColor=none;fillColor=none;fontColor=#FF0000;fontStyle=1" vertex="1" parent="1">
          <mxGeometry x="192" y="545" width="40" height="20" as="geometry" />
        </mxCell>
        <mxCell id="lE9tWUVvxa7UO95_J6Bx-49" value="Trapdoor for &lt;br&gt;polynomials" style="text;html=1;align=center;verticalAlign=middle;resizable=0;points=[];autosize=1;strokeColor=none;fillColor=none;" vertex="1" parent="1">
          <mxGeometry x="172" y="570" width="80" height="30" as="geometry" />
        </mxCell>
        <mxCell id="lE9tWUVvxa7UO95_J6Bx-50" value="IBE" style="text;html=1;align=center;verticalAlign=middle;resizable=0;points=[];autosize=1;strokeColor=none;fillColor=none;fontStyle=1" vertex="1" parent="1">
          <mxGeometry x="192" y="600" width="40" height="20" as="geometry" />
        </mxCell>
        <mxCell id="lE9tWUVvxa7UO95_J6Bx-51" value="2017" style="text;html=1;align=center;verticalAlign=middle;resizable=0;points=[];autosize=1;strokeColor=none;fillColor=none;fontColor=#FF0000;fontStyle=1" vertex="1" parent="1">
          <mxGeometry x="65" y="544" width="40" height="20" as="geometry" />
        </mxCell>
        <mxCell id="lE9tWUVvxa7UO95_J6Bx-52" value="MPLWE" style="text;html=1;align=center;verticalAlign=middle;resizable=0;points=[];autosize=1;strokeColor=none;fillColor=none;" vertex="1" parent="1">
          <mxGeometry x="55" y="568" width="60" height="20" as="geometry" />
        </mxCell>
        <mxCell id="lE9tWUVvxa7UO95_J6Bx-53" value="" style="endArrow=classic;html=1;rounded=0;" edge="1" parent="1">
          <mxGeometry width="50" height="50" relative="1" as="geometry">
            <mxPoint x="112" y="554.5" as="sourcePoint" />
            <mxPoint x="192" y="554.5" as="targetPoint" />
            <Array as="points">
              <mxPoint x="182" y="554.5" />
            </Array>
          </mxGeometry>
        </mxCell>
        <mxCell id="lE9tWUVvxa7UO95_J6Bx-55" value="" style="endArrow=classic;html=1;rounded=0;" edge="1" parent="1">
          <mxGeometry width="50" height="50" relative="1" as="geometry">
            <mxPoint x="32" y="558.5" as="sourcePoint" />
            <mxPoint x="67" y="558.5" as="targetPoint" />
          </mxGeometry>
        </mxCell>
        <mxCell id="lE9tWUVvxa7UO95_J6Bx-58" value="Rosca et al.&lt;br&gt;[RSSS17]" style="text;html=1;align=center;verticalAlign=middle;resizable=0;points=[];autosize=1;strokeColor=none;fillColor=none;fontColor=#000000;" vertex="1" parent="1">
          <mxGeometry x="46" y="508" width="80" height="30" as="geometry" />
        </mxCell>
        <mxCell id="lE9tWUVvxa7UO95_J6Bx-61" value="ideal&amp;nbsp;&lt;br&gt;lattices" style="text;html=1;align=center;verticalAlign=middle;resizable=0;points=[];autosize=1;strokeColor=none;fillColor=none;fontColor=#000000;" vertex="1" parent="1">
          <mxGeometry x="60" y="414" width="50" height="30" as="geometry" />
        </mxCell>
        <mxCell id="lE9tWUVvxa7UO95_J6Bx-62" value="Regev PKE" style="text;html=1;align=center;verticalAlign=middle;resizable=0;points=[];autosize=1;strokeColor=none;fillColor=none;fontStyle=1" vertex="1" parent="1">
          <mxGeometry x="169" y="316" width="80" height="20" as="geometry" />
        </mxCell>
        <mxCell id="lE9tWUVvxa7UO95_J6Bx-63" value="IBE, HIBE, DS" style="text;html=1;align=center;verticalAlign=middle;resizable=0;points=[];autosize=1;strokeColor=none;fillColor=none;fontStyle=1" vertex="1" parent="1">
          <mxGeometry x="284" y="454" width="90" height="20" as="geometry" />
        </mxCell>
        <mxCell id="lE9tWUVvxa7UO95_J6Bx-64" value="ABE" style="text;html=1;align=center;verticalAlign=middle;resizable=0;points=[];autosize=1;strokeColor=none;fillColor=none;fontColor=#000000;fontStyle=1" vertex="1" parent="1">
          <mxGeometry x="438" y="454" width="40" height="20" as="geometry" />
        </mxCell>
        <mxCell id="lE9tWUVvxa7UO95_J6Bx-66" style="edgeStyle=orthogonalEdgeStyle;rounded=0;orthogonalLoop=1;jettySize=auto;html=1;" edge="1" parent="1">
          <mxGeometry relative="1" as="geometry">
            <mxPoint x="37" y="560" as="targetPoint" />
            <mxPoint x="457" y="476" as="sourcePoint" />
            <Array as="points">
              <mxPoint x="457" y="490" />
              <mxPoint x="37" y="490" />
            </Array>
          </mxGeometry>
        </mxCell>
        <mxCell id="lE9tWUVvxa7UO95_J6Bx-67" value="PKE" style="text;html=1;align=center;verticalAlign=middle;resizable=0;points=[];autosize=1;strokeColor=none;fillColor=none;fontColor=#000000;fontStyle=1" vertex="1" parent="1">
          <mxGeometry x="60" y="600" width="40" height="20" as="geometry" />
        </mxCell>
        <mxCell id="lE9tWUVvxa7UO95_J6Bx-68" value="Lombardi et al.&lt;br&gt;[LVV19]" style="text;html=1;align=center;verticalAlign=middle;resizable=0;points=[];autosize=1;strokeColor=none;fillColor=none;fontColor=#000000;" vertex="1" parent="1">
          <mxGeometry x="164" y="509" width="90" height="30" as="geometry" />
        </mxCell>
        <mxCell id="lE9tWUVvxa7UO95_J6Bx-69" value="Ajtai [Ajt96]" style="text;html=1;align=center;verticalAlign=middle;resizable=0;points=[];autosize=1;strokeColor=none;fillColor=none;" vertex="1" parent="1">
          <mxGeometry x="298.5" y="158" width="80" height="20" as="geometry" />
        </mxCell>
        <mxCell id="lE9tWUVvxa7UO95_J6Bx-70" value="SIS" style="text;html=1;align=center;verticalAlign=middle;resizable=0;points=[];autosize=1;strokeColor=none;fillColor=none;" vertex="1" parent="1">
          <mxGeometry x="323.5" y="200" width="30" height="20" as="geometry" />
        </mxCell>
        <mxCell id="lE9tWUVvxa7UO95_J6Bx-71" value="1996" style="text;html=1;align=center;verticalAlign=middle;resizable=0;points=[];autosize=1;strokeColor=none;fillColor=none;fontStyle=1;fontColor=#FF0000;" vertex="1" parent="1">
          <mxGeometry x="318.5" y="176" width="40" height="20" as="geometry" />
        </mxCell>
        <mxCell id="lE9tWUVvxa7UO95_J6Bx-76" value="Lagrange, Minkowski, &lt;br&gt;Gauss, Hermite" style="text;html=1;align=center;verticalAlign=middle;resizable=0;points=[];autosize=1;strokeColor=none;fillColor=none;" vertex="1" parent="1">
          <mxGeometry x="132" y="146" width="130" height="30" as="geometry" />
        </mxCell>
        <mxCell id="lE9tWUVvxa7UO95_J6Bx-77" value="Mathematical aspect" style="text;html=1;align=center;verticalAlign=middle;resizable=0;points=[];autosize=1;strokeColor=none;fillColor=none;" vertex="1" parent="1">
          <mxGeometry x="132" y="200" width="130" height="20" as="geometry" />
        </mxCell>
        <mxCell id="lE9tWUVvxa7UO95_J6Bx-78" value="18th-19th century" style="text;html=1;align=center;verticalAlign=middle;resizable=0;points=[];autosize=1;strokeColor=none;fillColor=none;fontStyle=1;fontColor=#FF0000;" vertex="1" parent="1">
          <mxGeometry x="137" y="176" width="120" height="20" as="geometry" />
        </mxCell>
        <mxCell id="lE9tWUVvxa7UO95_J6Bx-79" style="edgeStyle=orthogonalEdgeStyle;rounded=0;orthogonalLoop=1;jettySize=auto;html=1;" edge="1" parent="1">
          <mxGeometry relative="1" as="geometry">
            <mxPoint x="37" y="280" as="targetPoint" />
            <mxPoint x="338" y="220" as="sourcePoint" />
            <Array as="points">
              <mxPoint x="338" y="230" />
              <mxPoint x="37" y="230" />
            </Array>
          </mxGeometry>
        </mxCell>
        <mxCell id="lE9tWUVvxa7UO95_J6Bx-80" value="" style="endArrow=classic;html=1;rounded=0;entryX=0.175;entryY=0.7;entryDx=0;entryDy=0;entryPerimeter=0;" edge="1" parent="1" target="lE9tWUVvxa7UO95_J6Bx-26">
          <mxGeometry width="50" height="50" relative="1" as="geometry">
            <mxPoint x="38" y="280" as="sourcePoint" />
            <mxPoint x="86" y="450" as="targetPoint" />
          </mxGeometry>
        </mxCell>
        <mxCell id="lE9tWUVvxa7UO95_J6Bx-81" value="" style="endArrow=classic;html=1;rounded=0;" edge="1" parent="1">
          <mxGeometry width="50" height="50" relative="1" as="geometry">
            <mxPoint x="252" y="186.57999999999998" as="sourcePoint" />
            <mxPoint x="322" y="188" as="targetPoint" />
          </mxGeometry>
        </mxCell>
        <mxCell id="lE9tWUVvxa7UO95_J6Bx-83" value="" style="endArrow=classic;html=1;rounded=0;" edge="1" parent="1">
          <mxGeometry width="50" height="50" relative="1" as="geometry">
            <mxPoint x="240" y="554.5800000000003" as="sourcePoint" />
            <mxPoint x="315" y="554.5800000000003" as="targetPoint" />
          </mxGeometry>
        </mxCell>
      </root>
    </mxGraphModel>
  </diagram>
</mxfile>
